<?xml version="1.0" encoding="UTF-8" standalone="no"?>
<svg
   width="51"
   height="51"
   viewBox="0 0 51 51"
   fill="none"
   version="1.1"
   id="svg13827"
   sodipodi:docname="3-hover.svg"
   inkscape:version="1.2 (dc2aedaf03, 2022-05-15)"
   xmlns:inkscape="http://www.inkscape.org/namespaces/inkscape"
   xmlns:sodipodi="http://sodipodi.sourceforge.net/DTD/sodipodi-0.dtd"
   xmlns="http://www.w3.org/2000/svg"
   xmlns:svg="http://www.w3.org/2000/svg">
  <sodipodi:namedview
     id="namedview13829"
     pagecolor="#ffffff"
     bordercolor="#000000"
     borderopacity="0.25"
     inkscape:showpageshadow="2"
     inkscape:pageopacity="0.0"
     inkscape:pagecheckerboard="0"
     inkscape:deskcolor="#d1d1d1"
     showgrid="false"
     inkscape:zoom="12.27451"
     inkscape:cx="25.581469"
     inkscape:cy="25.581469"
     inkscape:window-width="1600"
     inkscape:window-height="829"
     inkscape:window-x="-8"
     inkscape:window-y="-8"
     inkscape:window-maximized="1"
     inkscape:current-layer="g13820" />
  <g
     clip-path="url(#clip0_0_1487)"
     id="g13820">
    <circle
       cx="25.5"
       cy="25.5"
       r="25.5"
       fill="#262E38"
       id="circle13816"
       style="fill:#7c8798;fill-opacity:1" />
    <path
       d="M25.8915 31.192C24.9422 31.192 24.1262 30.9627 23.4435 30.504C22.7715 30.0347 22.2702 29.3947 21.9395 28.584L23.6995 27.88C24.1688 28.872 24.9102 29.368 25.9235 29.368C26.4888 29.368 26.9528 29.2293 27.3155 28.952C27.6782 28.664 27.8595 28.2587 27.8595 27.736C27.8595 27.256 27.6995 26.8613 27.3795 26.552C27.0595 26.2427 26.5742 26.088 25.9235 26.088H24.9475V24.264H25.9235C26.3822 24.264 26.7502 24.136 27.0275 23.88C27.3155 23.624 27.4595 23.288 27.4595 22.872C27.4595 22.4347 27.3208 22.088 27.0435 21.832C26.7768 21.5653 26.3928 21.432 25.8915 21.432C25.0915 21.432 24.4888 21.8107 24.0835 22.568L22.3235 21.896C22.6328 21.192 23.0968 20.6373 23.7155 20.232C24.3342 19.816 25.0702 19.608 25.9235 19.608C26.9368 19.608 27.7688 19.9067 28.4195 20.504C29.0808 21.0907 29.4115 21.8213 29.4115 22.696C29.4115 23.7947 28.9422 24.6 28.0035 25.112C28.5475 25.3253 28.9848 25.656 29.3155 26.104C29.6462 26.552 29.8115 27.0853 29.8115 27.704C29.8115 28.8027 29.4488 29.6613 28.7235 30.28C28.0088 30.888 27.0648 31.192 25.8915 31.192Z"
       fill="#7C8798"
       id="path13818"
       style="fill:#ffffff;fill-opacity:1" />
  </g>
  <defs
     id="defs13825">
    <clipPath
       id="clip0_0_1487">
      <rect
         width="51"
         height="51"
         fill="white"
         id="rect13822" />
    </clipPath>
  </defs>
</svg>
