<svg width="51" height="51" viewBox="0 0 51 51" fill="none" xmlns="http://www.w3.org/2000/svg">
<g clip-path="url(#clip0_0_1520)">
<circle cx="25.5" cy="25.5" r="25.5" fill="#FC7614"/>
<path d="M24.5559 31.192C23.0945 31.192 21.9425 30.84 21.0999 30.136L22.1879 28.632C22.9239 29.1227 23.7132 29.368 24.5559 29.368C25.2599 29.368 25.8252 29.176 26.2519 28.792C26.6892 28.408 26.9079 27.896 26.9079 27.256C26.9079 26.6693 26.7425 26.216 26.4119 25.896C26.0919 25.576 25.6492 25.416 25.0839 25.416C24.3905 25.416 23.8039 25.672 23.3239 26.184L21.4199 25.384L21.7559 19.8H28.1399V21.64H23.5319L23.3559 24.072C23.8999 23.752 24.5292 23.592 25.2439 23.592C26.3959 23.592 27.2812 23.944 27.8999 24.648C28.5292 25.352 28.8439 26.216 28.8439 27.24C28.8439 28.4347 28.4439 29.3947 27.6439 30.12C26.8439 30.8347 25.8145 31.192 24.5559 31.192Z" fill="white"/>
</g>
<defs>
<clipPath id="clip0_0_1520">
<rect width="51" height="51" fill="white"/>
</clipPath>
</defs>
</svg>
